<svg width="66" height="66" viewBox="0 0 66 66" fill="none" xmlns="http://www.w3.org/2000/svg">
<circle cx="33" cy="33" r="32.5" fill="#4BC6AC" fill-opacity="0.2"/>
<g clip-path="url(#clip0_123_4546)">
<path d="M46.7499 25.9167C47.1446 25.9167 47.5231 26.0735 47.8021 26.3525C48.0812 26.6316 48.238 27.0101 48.238 27.4048C48.238 27.7994 48.0812 28.1779 47.8021 28.457C47.5231 28.7361 47.1446 28.8929 46.7499 28.8929V43.7738C47.1446 43.7738 47.5231 43.9306 47.8021 44.2097C48.0812 44.4887 48.238 44.8673 48.238 45.2619C48.238 45.6566 48.0812 46.0351 47.8021 46.3142C47.5231 46.5932 47.1446 46.75 46.7499 46.75H19.9642C19.5695 46.75 19.191 46.5932 18.9119 46.3142C18.6329 46.0351 18.4761 45.6566 18.4761 45.2619C18.4761 44.8673 18.6329 44.4887 18.9119 44.2097C19.191 43.9306 19.5695 43.7738 19.9642 43.7738V28.8929C19.5695 28.8929 19.191 28.7361 18.9119 28.457C18.6329 28.1779 18.4761 27.7994 18.4761 27.4048C18.4761 27.0101 18.6329 26.6316 18.9119 26.3525C19.191 26.0735 19.5695 25.9167 19.9642 25.9167H46.7499ZM25.9166 31.8691C25.5219 31.8691 25.1434 32.0258 24.8643 32.3049C24.5852 32.584 24.4285 32.9625 24.4285 33.3572V43.7738H27.4046V33.3572C27.4046 32.9625 27.2479 32.584 26.9688 32.3049C26.6897 32.0258 26.3112 31.8691 25.9166 31.8691ZM33.357 31.8691C32.9624 31.8691 32.5839 32.0258 32.3048 32.3049C32.0257 32.584 31.8689 32.9625 31.8689 33.3572V43.7738H34.8451V33.3572C34.8451 32.9625 34.6883 32.584 34.4093 32.3049C34.1302 32.0258 33.7517 31.8691 33.357 31.8691ZM40.7975 31.8691C40.4028 31.8691 40.0243 32.0258 39.7453 32.3049C39.4662 32.584 39.3094 32.9625 39.3094 33.3572V43.7738H42.2856V33.3572C42.2856 32.9625 42.1288 32.584 41.8497 32.3049C41.5707 32.0258 41.1922 31.8691 40.7975 31.8691ZM42.2856 21.4524C42.6803 21.4524 43.0588 21.6092 43.3378 21.8882C43.6169 22.1673 43.7737 22.5458 43.7737 22.9405C43.7737 23.3352 43.6169 23.7137 43.3378 23.9927C43.0588 24.2718 42.6803 24.4286 42.2856 24.4286H24.4285C24.0338 24.4286 23.6553 24.2718 23.3762 23.9927C23.0971 23.7137 22.9404 23.3352 22.9404 22.9405C22.9404 22.5458 23.0971 22.1673 23.3762 21.8882C23.6553 21.6092 24.0338 21.4524 24.4285 21.4524H42.2856Z" fill="#6FC2AD"/>
</g>
<defs>
<clipPath id="clip0_123_4546">
<rect width="35.7143" height="35.7143" fill="white" transform="translate(15.5 15.5)"/>
</clipPath>
</defs>
</svg>
