<svg width="66" height="66" viewBox="0 0 66 66" fill="none" xmlns="http://www.w3.org/2000/svg">
<circle cx="33" cy="33" r="32.5" fill="#4BC6AC" fill-opacity="0.2"/>
<g clip-path="url(#clip0_123_4563)">
<path d="M25.9167 33.3572C29.1905 33.3572 31.869 30.6786 31.869 27.4048C31.869 24.131 29.1905 21.4524 25.9167 21.4524C22.6429 21.4524 19.9643 24.131 19.9643 27.4048C19.9643 30.6786 22.6429 33.3572 25.9167 33.3572ZM31.869 45.2619V37.375C30.2321 36.7798 28.1488 36.3333 25.9167 36.3333C20.1131 36.3333 15.5 39.0119 15.5 42.2857V45.2619H31.869ZM48.2381 21.4524H37.8214C36.1845 21.4524 34.8452 22.7917 34.8452 24.4286V42.2857C34.8452 43.9226 36.1845 45.2619 37.8214 45.2619H48.2381C49.875 45.2619 51.2143 43.9226 51.2143 42.2857V24.4286C51.2143 22.7917 49.875 21.4524 48.2381 21.4524ZM42.2857 42.2857H39.3095V24.4286H42.2857V42.2857Z" fill="#6FC2AD"/>
</g>
<defs>
<clipPath id="clip0_123_4563">
<rect width="35.7143" height="35.7143" fill="white" transform="translate(15.5 15.5)"/>
</clipPath>
</defs>
</svg>
