<svg width="48" height="47" viewBox="0 0 48 47" fill="none" xmlns="http://www.w3.org/2000/svg">
<path d="M24.3045 0.0620728C23.301 0.232006 22.2975 0.595306 21.4259 1.09924C21.0523 1.31605 15.2439 6.08 5.89031 13.8324C4.96008 14.6 3.97125 15.4204 3.68559 15.6548C2.32321 16.7798 2.10347 16.9732 1.75921 17.3365C0.711786 18.4499 0.191737 19.5866 0.0525683 21.0633C0.00862048 21.5731 -0.0133535 25.3878 0.00862048 31.5932C0.0305944 41.2383 0.037919 41.3262 0.184412 41.877C0.748409 43.8927 2.15474 45.469 4.31551 46.5062C4.64512 46.6702 4.94543 46.7991 4.98205 46.7991C5.01868 46.7991 4.92346 46.6468 4.77696 46.4593C4.42538 46.0257 4.00055 45.2873 3.80279 44.7775C3.4219 43.7931 3.42923 44.0685 3.42923 33.2281C3.42923 22.1063 3.40725 22.6278 3.88336 21.5438C4.40341 20.3718 5.00403 19.6511 6.49825 18.4147C8.62973 16.6626 18.9721 8.10746 20.6055 6.75387C23.3889 4.43928 24.6194 3.46657 25.0443 3.2439C27.0585 2.20087 29.3292 1.9782 31.5559 2.60519C31.7756 2.66965 32.0246 2.73996 32.1052 2.7634C32.3323 2.83372 30.4791 1.35121 29.9737 1.05822C29.3585 0.706642 28.4942 0.366779 27.7104 0.179268C27.1464 0.0444946 26.8901 0.0210571 25.9159 0.00347519C25.1468 -0.00824356 24.6267 0.00933456 24.3045 0.0620728Z" fill="#297868"/>
<path d="M29.3363 6.6191C29.4608 6.73629 32.6763 9.40246 35.2473 11.5237C35.8552 12.0218 37.115 13.0648 38.0379 13.8383C38.9682 14.6059 40.2353 15.6606 40.8579 16.1763C41.4805 16.6919 42.5206 17.5475 43.1652 18.0807C47.3622 21.5555 47.0692 21.327 47.5673 21.5204C48.4975 21.8837 48.8931 22.2294 38.1991 13.3988C37.7157 12.9945 36.8147 12.2561 36.2141 11.7581C35.6062 11.26 34.3537 10.217 33.4234 9.44934C30.0101 6.61324 30.0614 6.6484 29.4461 6.53706C29.2044 6.49605 29.2044 6.49605 29.3363 6.6191Z" fill="#297868"/>
<path d="M17.5733 20.5535C17.6172 20.6238 18.0054 21.1336 18.4303 21.6844C18.8551 22.2352 19.6535 23.2783 20.2028 24.0049C20.7595 24.7315 21.6092 25.8448 22.0999 26.4894C22.5907 27.1281 22.9789 27.6906 22.9569 27.7316C22.9349 27.7727 22.0853 28.8684 21.0745 30.1693C18.064 34.0074 17.0532 35.3141 17.0532 35.3434C17.0532 35.361 18.2178 35.3727 19.6388 35.3727H22.2171L23.1254 34.189C24.7368 32.0854 25.7842 30.7377 25.8062 30.7553C25.8281 30.7728 27.2052 32.5425 28.5236 34.2418L29.3952 35.3727H31.9808C33.3945 35.3727 34.5591 35.361 34.5591 35.3434C34.5591 35.3258 33.7314 34.2476 32.7133 32.9526C31.7025 31.6577 30.6697 30.3392 30.428 30.0287C28.9558 28.136 28.6262 27.7082 28.6262 27.6789C28.6262 27.6555 29.073 27.0519 29.6296 26.337C30.179 25.6163 31.0286 24.5029 31.5194 23.8584C32.0175 23.2138 32.7646 22.2294 33.1967 21.6727C33.6216 21.116 34.0098 20.6062 34.0464 20.5418C34.127 20.4304 34.083 20.4304 31.5194 20.4422L28.9045 20.4597L28.2746 21.3153C27.923 21.7899 27.2272 22.7275 26.7218 23.4072C26.2237 24.0869 25.7842 24.626 25.7622 24.6026C25.7183 24.5674 25.1763 23.8349 24.4877 22.8915C24.3559 22.7157 23.9018 22.0887 23.4696 21.4969L22.6785 20.4304H20.0856H17.4854L17.5733 20.5535ZM24.0043 23.0849C24.0995 23.2197 24.246 23.4248 24.3412 23.5361C24.4291 23.6474 24.7587 24.0986 25.0737 24.5322C25.3887 24.9659 25.689 25.3585 25.7402 25.3995C25.8062 25.4639 26.0186 25.2237 26.8023 24.1572L27.7838 22.8388L29.3147 22.8329C30.6917 22.8329 30.8382 22.8446 30.7943 22.9267C30.7576 23.0087 29.6663 24.4502 27.9816 26.6359L27.4689 27.3097L27.8131 27.7492C28.0036 27.9953 28.7507 28.9446 29.4612 29.8646C30.179 30.7846 30.8455 31.6284 30.9407 31.7455C31.036 31.8569 31.1165 31.9682 31.1165 31.9917C31.1165 32.0444 28.172 32.0444 28.0695 31.9858C28.0255 31.9624 27.8497 31.7573 27.674 31.5346C26.3995 29.8529 25.8135 29.1614 25.7329 29.2317C25.6817 29.2727 25.1836 29.8997 24.6269 30.6263C24.0702 31.3529 23.5795 31.9624 23.5429 31.9858C23.4623 32.0327 20.4958 32.0503 20.4958 32.0092C20.4958 31.9799 22.869 28.9153 23.0594 28.6926C23.1327 28.6106 23.4037 28.2649 23.6674 27.925L24.1435 27.3039L23.6308 26.6359C21.9461 24.4502 20.8547 23.0087 20.8181 22.9267C20.7741 22.8446 20.9206 22.8329 22.2977 22.8329H23.8285L24.0043 23.0849Z" fill="#297868"/>
<path d="M8.82032 43.3244C8.90089 43.6232 9.34036 44.3088 9.61138 44.549C9.96296 44.8713 10.5489 45.1819 11.1056 45.3284L11.5524 45.4514H28.4504H45.3483L45.3117 45.1116C45.2238 44.385 44.4913 43.6232 43.5904 43.3302L43.1656 43.1954L25.9673 43.1779L8.77637 43.1661L8.82032 43.3244Z" fill="#297868"/>
</svg>
