<svg width="65" height="66" viewBox="0 0 65 66" fill="none" xmlns="http://www.w3.org/2000/svg">
<circle cx="32.5" cy="33" r="32.5" fill="#4BC6AC" fill-opacity="0.2"/>
<g clip-path="url(#clip0_143_1782)">
<path d="M31.9777 16.6307C31.3045 16.8881 17.7025 23.7584 17.4847 23.9432C16.8577 24.491 16.8379 25.5008 17.4319 26.0552C17.5375 26.1476 18.6594 26.7481 19.9332 27.3817L22.2431 28.5301L19.8342 29.7444C17.5903 30.873 17.4121 30.9786 17.2273 31.2426C17.0491 31.5065 17.0293 31.5791 17.0293 32.0477C17.0293 32.5163 17.0491 32.5889 17.2273 32.8529C17.4121 33.1169 17.5903 33.2225 19.8342 34.351L22.2431 35.5654L19.9332 36.7137C18.6594 37.3473 17.5375 37.9479 17.4319 38.0403C16.8577 38.5749 16.8643 39.6044 17.4385 40.139C17.5375 40.238 20.8835 41.9407 24.8698 43.9339C32.0107 47.5043 32.1163 47.5571 32.5057 47.5571C32.8951 47.5571 33.0007 47.5043 40.1416 43.9339C44.1278 41.9407 47.4739 40.238 47.5729 40.139C48.1471 39.6044 48.1537 38.5749 47.5795 38.0403C47.4739 37.9479 46.3519 37.3539 45.0848 36.7203L42.7881 35.572L45.0518 34.45C46.2992 33.8297 47.4145 33.2423 47.5333 33.1433C48.0613 32.7011 48.1735 31.8101 47.7841 31.2426C47.5993 30.9786 47.4079 30.8664 45.1772 29.7444L42.7683 28.5301L45.0782 27.3817C46.3519 26.7481 47.4739 26.1476 47.5795 26.0552C48.1735 25.5008 48.1537 24.491 47.5267 23.9432C47.3749 23.8112 44.405 22.2867 40.1284 20.155C33.423 16.8023 32.9611 16.5779 32.5981 16.5581C32.3803 16.5515 32.1097 16.5779 31.9777 16.6307ZM32.5717 33.4799C32.8885 33.4535 33.4098 33.2093 36.2345 31.7969L39.5344 30.1536L41.4021 31.0842C42.4251 31.5923 43.2633 32.0279 43.2633 32.0477C43.2633 32.0675 40.8412 33.2885 37.8845 34.7734L32.5057 37.4595L27.1269 34.7734C24.1702 33.2885 21.7481 32.0675 21.7481 32.0477C21.7481 32.0279 22.5863 31.5923 23.6092 31.0842L25.477 30.1536L28.8428 31.8299L32.2087 33.5129L32.5717 33.4799ZM28.7768 38.8521C32.0767 40.5152 32.0767 40.5152 32.5057 40.5152C32.9281 40.5152 32.9347 40.5152 36.2411 38.8521L39.5542 37.1889L41.4549 38.1393L43.3623 39.0963L37.9307 41.8088L32.5057 44.5212L27.0807 41.8088L21.6491 39.0963L23.53 38.1459C24.5662 37.6311 25.4242 37.2021 25.444 37.1955C25.4638 37.1955 26.9619 37.9413 28.7768 38.8521Z" fill="#6FC2AD"/>
</g>
<defs>
<clipPath id="clip0_143_1782">
<rect width="31" height="31" fill="white" transform="translate(17 17)"/>
</clipPath>
</defs>
</svg>
