<svg width="303" height="214" viewBox="0 0 303 214" fill="none" xmlns="http://www.w3.org/2000/svg">
<path d="M280.374 64.0797C273.436 47.1683 262.805 31.4834 249.144 19.5934C233.118 5.65448 207.839 -5.09553 186.469 2.53048C164.348 10.3946 149.556 29.2251 133.155 44.5782C127.385 49.9604 121.095 55.0613 113.616 58.0626C79.3933 71.7707 56.1477 53.07 25.7979 74.2814C-4.5519 95.4929 -7.14115 137.887 12.8805 164.711C32.9021 191.536 80.6771 187.799 116.847 187.799C153.017 187.799 147.197 213.375 210.486 213.996C275.203 214.638 295.628 145.96 288.632 94.5621C287.18 84.0928 284.405 73.8502 280.374 64.0797Z" fill="#6FC2AD"/>
<path opacity="0.7" d="M280.374 64.0797C273.436 47.1683 262.805 31.4834 249.144 19.5934C233.118 5.65448 207.839 -5.09553 186.469 2.53048C164.348 10.3946 149.556 29.2251 133.155 44.5782C127.385 49.9604 121.095 55.0613 113.616 58.0626C79.3933 71.7707 56.1477 53.07 25.7979 74.2814C-4.5519 95.4929 -7.14115 137.887 12.8805 164.711C32.9021 191.536 80.6771 187.799 116.847 187.799C153.017 187.799 147.197 213.375 210.486 213.996C275.203 214.638 295.628 145.96 288.632 94.5621C287.18 84.0928 284.405 73.8502 280.374 64.0797Z" fill="white"/>
<path opacity="0.3" d="M272.061 52.804C272.061 52.804 269.719 41.3765 261.909 42.157C258.36 42.507 255.986 44.285 253.928 47.057C251.288 50.5955 250.341 48.5375 246.564 49.6995C243.184 50.7495 243.703 53.595 241.62 54.113C239.537 54.631 237.98 52.2965 235.115 52.8145C232.25 53.3325 230.693 56.192 230.693 56.192H282.728C282.593 55.2205 282.176 54.3097 281.528 53.5716C280.881 52.8335 280.032 52.3003 279.085 52.0375C275.704 50.9875 274.14 53.5845 272.061 52.804Z" stroke="black" stroke-miterlimit="10"/>
<path opacity="0.3" d="M112.686 28.6645C112.686 28.6645 111.087 20.8525 105.75 21.388C103.324 21.6295 101.703 22.844 100.297 24.727C98.4913 27.1455 97.8426 25.7385 95.2617 26.533C92.9508 27.2435 93.3015 29.2 91.8988 29.55C90.4961 29.9 89.4091 28.3075 87.4559 28.6645C85.5026 29.0215 84.4331 30.971 84.4331 30.971H119.977C119.882 30.3114 119.598 29.6935 119.157 29.1926C118.717 28.6917 118.14 28.3294 117.497 28.15C115.176 27.422 114.11 29.2 112.686 28.6645Z" stroke="black" stroke-miterlimit="10"/>
<g opacity="0.3">
<path d="M220.497 18.6013L213.273 33.7445L239.54 46.2265L246.763 31.0833L220.497 18.6013Z" stroke="black" stroke-miterlimit="10"/>
<path d="M223.56 21.85C223.329 22.3339 222.915 22.7063 222.408 22.8854C221.902 23.0646 221.345 23.0358 220.86 22.8055C220.783 22.7702 220.71 22.7293 220.639 22.683L216.491 31.3875C216.571 31.4126 216.649 31.443 216.726 31.4785C217.211 31.7101 217.584 32.1243 217.763 32.6302C217.943 33.136 217.914 33.6923 217.683 34.177C217.665 34.2143 217.645 34.2505 217.623 34.2855L236.391 43.2C236.391 43.1615 236.423 43.123 236.44 43.0845C236.671 42.6 237.085 42.2268 237.591 42.0469C238.098 41.8671 238.655 41.8953 239.14 42.1255C239.216 42.1633 239.29 42.2054 239.361 42.2515L243.51 33.5575C243.429 33.5311 243.351 33.4996 243.275 33.463C242.794 33.2296 242.426 32.816 242.249 32.3124C242.073 31.8088 242.104 31.2561 242.335 30.775C242.37 30.6985 242.411 30.6248 242.458 30.5545L223.651 21.626C223.626 21.7025 223.595 21.7773 223.56 21.85ZM233.028 33.834C232.746 34.4279 232.294 34.9249 231.729 35.2621C231.164 35.5993 230.512 35.7614 229.854 35.7279C229.197 35.6944 228.564 35.4668 228.036 35.074C227.508 34.6812 227.109 34.1408 226.89 33.5214C226.67 32.9019 226.64 32.2314 226.802 31.5946C226.965 30.9579 227.313 30.3837 227.803 29.9448C228.293 29.5059 228.903 29.2221 229.554 29.1294C230.206 29.0367 230.871 29.1392 231.464 29.424C231.858 29.6117 232.21 29.8749 232.502 30.1987C232.794 30.5225 233.018 30.9004 233.164 31.3109C233.309 31.7214 233.372 32.1564 233.348 32.5911C233.325 33.0258 233.216 33.4517 233.028 33.8445V33.834Z" stroke="black" stroke-miterlimit="10"/>
</g>
<g opacity="0.3">
<path d="M64.1212 27.1808L56.8975 42.324L83.1636 54.806L90.3873 39.6628L64.1212 27.1808Z" stroke="black" stroke-miterlimit="10"/>
<path d="M67.1769 30.4354C67.0627 30.6753 66.9022 30.8904 66.7046 31.0683C66.507 31.2462 66.2762 31.3835 66.0254 31.4723C65.7746 31.561 65.5087 31.5995 65.2429 31.5856C64.9772 31.5716 64.7168 31.5055 64.4767 31.3909C64.4001 31.3557 64.3263 31.3147 64.2558 31.2684L60.1074 39.9624C60.1864 39.9866 60.2637 40.0159 60.3389 40.0499C60.5792 40.1639 60.7947 40.3241 60.973 40.5213C61.1512 40.7185 61.2887 40.9489 61.3777 41.1992C61.4666 41.4495 61.5052 41.7149 61.4912 41.9802C61.4772 42.2454 61.4109 42.5053 61.2962 42.7449C61.2786 42.7834 61.2576 42.8184 61.2366 42.8569L80.0043 51.7749L80.0533 51.6594C80.1675 51.4195 80.328 51.2044 80.5256 51.0265C80.7232 50.8486 80.954 50.7113 81.2048 50.6226C81.4556 50.5338 81.7215 50.4953 81.9873 50.5093C82.253 50.5232 82.5134 50.5894 82.7535 50.7039C82.8301 50.7392 82.9039 50.7801 82.9744 50.8264L87.1263 42.1499C87.0456 42.1219 86.9685 42.0939 86.8913 42.0589C86.6498 41.9443 86.4334 41.7832 86.2546 41.5847C86.0758 41.3862 85.9381 41.1544 85.8494 40.9026C85.7607 40.6508 85.7229 40.384 85.738 40.1175C85.7531 39.851 85.8209 39.5901 85.9375 39.3499C85.9729 39.2746 86.0139 39.2021 86.0603 39.1329L67.268 30.2009C67.2444 30.2815 67.2139 30.36 67.1769 30.4354ZM76.6449 42.4194C76.3627 43.0111 75.9112 43.5059 75.3474 43.8416C74.7836 44.1772 74.1328 44.3385 73.4771 44.3051C72.8215 44.2717 72.1905 44.0451 71.6639 43.6539C71.1372 43.2628 70.7385 42.7246 70.5182 42.1073C70.2979 41.4901 70.2658 40.8216 70.426 40.1861C70.5861 39.5507 70.9314 38.9769 71.4182 38.5373C71.9049 38.0976 72.5113 37.8119 73.1608 37.716C73.8102 37.6202 74.4735 37.7187 75.0669 37.9989C75.4613 38.1857 75.815 38.4483 76.1078 38.7715C76.4006 39.0948 76.6267 39.4725 76.7732 39.883C76.9198 40.2934 76.9838 40.7287 76.9618 41.1639C76.9398 41.5991 76.8321 42.0258 76.6449 42.4194Z" stroke="black" stroke-miterlimit="10"/>
</g>
<g opacity="0.3">
<path d="M251.732 73.9196L244.508 89.0627L270.774 101.545L277.998 86.4016L251.732 73.9196Z" stroke="black" stroke-miterlimit="10"/>
<path d="M254.797 77.185C254.683 77.4253 254.523 77.6408 254.325 77.8191C254.127 77.9974 253.896 78.1351 253.645 78.2242C253.394 78.3132 253.128 78.352 252.861 78.3382C252.595 78.3245 252.334 78.2585 252.094 78.144C252.017 78.1055 251.947 78.0635 251.876 78.0215L247.728 86.7155C247.808 86.7412 247.886 86.7716 247.963 86.8065C248.448 87.0381 248.821 87.4523 249.001 87.9582C249.18 88.464 249.151 89.0203 248.92 89.505L248.861 89.6135L267.628 98.535C267.641 98.495 267.658 98.4564 267.677 98.4195C267.79 98.177 267.95 97.9594 268.148 97.7791C268.346 97.5988 268.578 97.4596 268.83 97.3694C269.082 97.2792 269.35 97.2399 269.617 97.2537C269.885 97.2676 270.147 97.3343 270.388 97.45C270.465 97.4885 270.539 97.5305 270.609 97.5725L274.754 88.8785C274.675 88.8527 274.598 88.8223 274.522 88.7875C274.037 88.5565 273.663 88.1426 273.483 87.6366C273.303 87.1307 273.331 86.574 273.562 86.089C273.6 86.0155 273.642 85.942 273.688 85.872L254.889 76.954C254.863 77.0329 254.833 77.1101 254.797 77.185ZM264.265 89.1725C263.983 89.7652 263.531 90.2609 262.966 90.597C262.401 90.933 261.749 91.0943 261.092 91.0605C260.435 91.0266 259.803 90.7991 259.276 90.4067C258.749 90.0143 258.35 89.4747 258.131 88.8561C257.911 88.2375 257.88 87.5677 258.041 86.9315C258.203 86.2953 258.55 85.7212 259.038 85.2818C259.527 84.8425 260.135 84.5576 260.786 84.4633C261.437 84.369 262.101 84.4695 262.694 84.752C263.489 85.1312 264.101 85.8097 264.395 86.6385C264.689 87.4674 264.641 88.3787 264.262 89.1725H264.265Z" stroke="black" stroke-miterlimit="10"/>
</g>
<g opacity="0.3">
<path d="M169.095 48.9943L178.958 62.5735L202.511 45.5312L192.648 31.952L169.095 48.9943Z" stroke="black" stroke-miterlimit="10"/>
<path d="M173.415 47.876C173.73 48.3105 173.859 48.8521 173.775 49.3817C173.69 49.9114 173.398 50.3857 172.962 50.7005C172.895 50.7506 172.823 50.7951 172.749 50.8335L178.412 58.6315C178.473 58.5741 178.537 58.5203 178.605 58.4705C179.041 58.1557 179.584 58.0265 180.115 58.1112C180.646 58.1958 181.122 58.4874 181.438 58.922C181.462 58.9557 181.485 58.9907 181.505 59.027L198.337 46.847L198.26 46.7525C197.944 46.3179 197.814 45.776 197.898 45.2458C197.982 44.7156 198.274 44.2404 198.708 43.9245C198.779 43.8755 198.852 43.8335 198.922 43.7915L193.241 35.997C193.18 36.0542 193.116 36.108 193.049 36.158C192.613 36.4717 192.071 36.6002 191.54 36.5156C191.01 36.431 190.535 36.1401 190.219 35.7065C190.17 35.6405 190.126 35.5715 190.085 35.5L173.253 47.6905C173.312 47.7485 173.365 47.8105 173.415 47.876ZM188.493 45.3175C188.879 45.8483 189.098 46.4812 189.123 47.1362C189.147 47.7912 188.977 48.4388 188.633 48.9973C188.29 49.5557 187.788 49.9998 187.191 50.2736C186.594 50.5473 185.93 50.6383 185.281 50.535C184.633 50.4318 184.029 50.139 183.548 49.6936C183.066 49.2482 182.727 48.6702 182.574 48.0328C182.422 47.3953 182.462 46.7269 182.689 46.1122C182.917 45.4974 183.323 44.9639 183.854 44.579C184.567 44.0639 185.455 43.8523 186.324 43.9908C187.192 44.1293 187.97 44.6065 188.486 45.3175H188.493Z" stroke="black" stroke-miterlimit="10"/>
</g>
<g opacity="0.15">
<path d="M56.9933 75.134C59.2166 75.2075 63.8103 73.2615 63.8138 73.2615C63.8173 73.2615 61.6081 70.6295 61.4468 70.4825C59.5848 68.764 54.97 66.5345 52.4978 67.9275C50.7129 68.932 50.4148 71.2315 51.5475 72.8275C52.6801 74.4235 55.0997 75.0745 56.9933 75.134Z" fill="black"/>
<path d="M63.9364 87.895C66.0159 87.4015 69.6733 84.5595 69.9644 84.332C71.5833 86.4233 73.3405 88.404 75.2244 90.261C76.3185 91.353 77.4546 92.4135 78.6048 93.4635C78.0087 93.0645 77.4722 92.7075 77.3915 92.6655C75.1367 91.5 70.0976 90.5655 68.0813 92.564C66.626 94.0025 66.9486 96.295 68.4635 97.5445C69.9784 98.794 72.4822 98.7695 74.3267 98.3285C76.1712 97.8875 79.3622 95.5285 80.1933 94.888L81.5259 96.0885C83.6754 97.9925 85.825 99.8825 87.8764 101.801C88.5988 102.476 89.2791 103.169 89.9804 103.859C89.4474 103.509 88.9986 103.208 88.9284 103.159C86.6772 101.993 81.6381 101.059 79.6182 103.057C78.163 104.492 78.4856 106.788 80.0005 108.034C81.5153 109.28 84.0191 109.263 85.8636 108.822C87.6485 108.398 90.5906 106.246 91.5795 105.497C92.2808 106.225 92.9541 106.953 93.5853 107.688C94.0061 108.199 94.4479 108.664 94.8407 109.203L96.0294 110.761C96.7308 111.779 97.4987 112.826 98.1755 113.837C98.6524 114.537 99.0908 115.209 99.5396 115.892C98.8383 115.192 97.4041 113.904 97.2708 113.792C95.2229 112.297 90.3837 110.614 88.0833 112.283C86.4282 113.484 86.4001 115.801 87.7081 117.264C89.0161 118.727 91.4953 119.08 93.3819 118.926C95.4614 118.755 99.3608 116.606 99.8447 116.336C100.581 117.46 101.282 118.562 101.931 119.616C102.513 120.554 103.053 121.453 103.562 122.311L105.217 121.656C104.638 120.722 104.021 119.745 103.351 118.716C102.611 117.572 101.798 116.361 100.949 115.125C101.988 114.14 102.968 113.095 103.884 111.996C105.817 112.92 109.961 113.253 110.494 113.291C110.494 114.635 110.463 115.941 110.421 117.176C110.397 118.023 110.366 118.84 110.326 119.626L112.079 118.926C112.079 118.366 112.1 117.799 112.104 117.211C112.122 115.846 112.104 114.387 112.104 112.889C112.641 112.798 117.034 112.003 118.767 110.827C120.331 109.756 122.021 107.961 122.116 105.959C122.21 103.957 120.713 102.224 118.672 102.336C115.835 102.49 113.145 106.844 112.504 109.294C112.465 109.438 112.227 111.044 112.097 112.073C112.097 111.461 112.076 110.869 112.055 110.239C112.02 108.993 111.95 107.751 111.876 106.414C111.82 105.77 111.764 105.122 111.704 104.464C111.645 103.806 111.532 103.127 111.448 102.452C111.217 100.891 110.912 99.319 110.565 97.744C111.659 97.709 115.534 97.541 117.248 96.715C118.963 95.889 120.902 94.3735 121.298 92.41C121.695 90.4465 120.481 88.504 118.444 88.308C115.618 88.0315 112.3 91.9305 111.29 94.258C111.227 94.4015 110.691 96.1515 110.417 97.1175C110.2 96.1725 109.989 95.2275 109.741 94.2755C109.039 91.535 108.212 88.784 107.416 86.033C107.17 85.1895 106.939 84.3495 106.714 83.506C107.103 83.506 111.715 83.394 113.636 82.456C115.344 81.637 117.29 80.118 117.687 78.1545C118.083 76.191 116.87 74.2485 114.832 74.0525C112.006 73.776 108.685 77.675 107.679 80.0025C107.601 80.1775 106.833 82.6975 106.672 83.345C106.15 81.49 105.645 79.6385 105.224 77.7905C104.643 75.2991 104.225 72.7726 103.972 70.227C104.151 70.227 108.969 70.1395 110.936 69.177C112.641 68.358 114.587 66.839 114.983 64.8755C115.379 62.912 114.166 60.9695 112.129 60.77C109.302 60.497 105.985 64.396 104.975 66.72C104.898 66.9055 104.074 69.611 103.958 70.115C103.958 69.968 103.912 69.814 103.902 69.667C103.717 67.1015 103.762 64.5247 104.035 61.967C104.168 60.567 104.386 59.216 104.603 57.914C105.504 57.991 109.614 58.292 111.48 57.634C113.265 57.004 115.369 55.709 115.975 53.8015C116.582 51.894 115.593 49.829 113.591 49.409C110.81 48.828 107.082 52.3385 105.827 54.5365C105.757 54.6555 105.196 55.9365 104.803 56.8955C104.915 56.311 105.021 55.702 105.154 55.1455C105.596 53.0455 106.129 51.152 106.616 49.479C106.9 48.527 107.177 47.673 107.444 46.8785C108.362 46.4935 112.055 44.8975 113.38 43.4835C114.706 42.0695 115.944 39.9835 115.604 38.0095C115.264 36.0355 113.433 34.6635 111.459 35.2095C108.724 35.9725 107.037 40.8095 106.935 43.333C106.935 43.55 107.184 46.987 107.23 46.966L107.286 46.945C107.012 47.7045 106.732 48.5235 106.441 49.423C105.915 51.089 105.34 52.979 104.849 55.0755C104.297 57.3301 103.876 59.6148 103.59 61.918C103.258 64.4951 103.155 67.0965 103.285 69.6915V69.786C102.99 69.009 102.096 66.8635 102.008 66.706C100.774 64.494 97.099 60.9415 94.2936 61.4945C92.2878 61.89 91.2884 63.983 91.8635 65.859C92.4386 67.735 94.5356 69.093 96.317 69.7405C98.3263 70.472 102.945 70.1185 103.313 70.0905C103.511 72.7292 103.885 75.3518 104.431 77.941C104.744 79.4495 105.101 80.9615 105.483 82.47C105.206 81.8085 104.954 81.217 104.908 81.1365C103.674 78.9245 99.999 75.372 97.1936 75.925C95.1878 76.324 94.1849 78.4135 94.76 80.2895C95.3351 82.1655 97.4356 83.5235 99.217 84.171C100.998 84.8185 104.968 84.6085 106.009 84.521C106.164 85.0985 106.307 85.676 106.462 86.271C107.198 89.043 107.949 91.801 108.601 94.5345C108.829 95.497 109.022 96.4525 109.215 97.408C108.969 96.8165 108.759 96.323 108.717 96.253C107.482 94.0375 103.807 90.485 101.002 91.038C98.9961 91.437 97.9932 93.53 98.5683 95.406C99.1434 97.282 101.244 98.64 103.025 99.2875C104.747 99.914 108.39 99.7425 109.632 99.662C109.8 100.646 109.982 101.633 110.095 102.595C110.161 103.253 110.27 103.883 110.302 104.548C110.333 105.213 110.389 105.857 110.431 106.501C110.47 107.747 110.515 109.032 110.522 110.25C110.522 111.093 110.522 111.902 110.522 112.7C110.305 111.741 109.821 109.868 109.783 109.718C108.93 107.656 107.56 105.848 105.806 104.468C105.722 104.234 105.617 104.009 105.49 103.796C104.48 102.112 102.257 101.451 100.613 102.669C98.3333 104.359 98.5086 109.473 99.3152 111.87C99.3643 112.01 100.059 113.487 100.511 114.411C100.16 113.911 99.8272 113.417 99.459 112.903C98.7576 111.884 97.9967 110.887 97.1972 109.812L95.9768 108.279C95.5771 107.761 95.0932 107.261 94.6478 106.743C93.5958 105.567 92.4702 104.426 91.3095 103.302C92.2037 102.672 95.3421 100.397 96.317 98.752C97.2918 97.107 98.0703 94.79 97.3164 92.935C96.5624 91.08 94.476 90.135 92.6665 91.0835C90.1558 92.41 89.5456 97.4885 89.9874 99.9805C90.0155 100.138 90.5345 101.892 90.8396 102.851C90.1382 102.179 89.4369 101.507 88.7075 100.852C86.6035 98.9585 84.3943 97.1105 82.2097 95.252C81.5399 94.685 80.8806 94.111 80.2179 93.5405C80.537 93.32 84.3277 90.6915 85.4183 88.8645C86.3896 87.2405 87.1716 84.899 86.4177 83.044C85.6637 81.189 83.5773 80.244 81.7678 81.1925C79.257 82.5225 78.6434 87.601 79.0887 90.093C79.1203 90.282 79.8707 92.802 80.0951 93.4355C78.6364 92.1755 77.1916 90.905 75.8205 89.5855C73.9587 87.827 72.2123 85.9506 70.5921 83.968C70.7429 83.863 74.7089 81.14 75.8275 79.2675C76.7989 77.6435 77.5809 75.3055 76.8269 73.4505C76.073 71.5955 73.9865 70.6505 72.1806 71.599C69.6663 72.9255 69.0562 78.004 69.498 80.496C69.5331 80.692 70.3431 83.4045 70.5254 83.8875C70.4308 83.772 70.3221 83.6635 70.2309 83.5375C68.6602 81.5353 67.2708 79.3977 66.079 77.15C65.4092 75.9005 64.8411 74.6685 64.3257 73.4575C65.1147 73.027 68.709 71.0075 69.9013 69.4395C71.0444 67.931 72.0824 65.691 71.5354 63.766C70.9883 61.841 69.0211 60.665 67.1205 61.4175C64.4764 62.4675 63.3087 67.441 63.4735 69.968C63.4735 70.1045 63.7295 71.4905 63.9259 72.4985C63.6945 71.949 63.449 71.3855 63.2246 70.8535C62.4321 68.8585 61.8219 67.0035 61.3134 65.32C61.0259 64.3715 60.7839 63.507 60.5665 62.6985C61.1206 61.869 63.3157 58.4985 63.6419 56.5945C63.968 54.6905 63.8452 52.2685 62.4706 50.809C61.096 49.3495 58.8097 49.213 57.4666 50.753C55.6046 52.895 56.867 57.8545 58.168 60.021C58.2802 60.2065 60.3947 62.9295 60.4227 62.8875L60.4578 62.8385C60.6507 63.6225 60.8681 64.4625 61.1206 65.3725C61.6045 67.0525 62.1726 68.9425 62.9195 70.9725C63.703 73.1582 64.6151 75.2958 65.6512 77.374C66.7976 79.7066 68.1508 81.9321 69.6944 84.024L69.754 84.0975C69.0772 83.611 67.145 82.316 66.9837 82.232C64.7324 81.0665 59.6934 80.132 57.677 82.1305C56.2218 83.569 56.5409 85.8615 58.0592 87.111C59.5776 88.3605 62.0919 88.35 63.9364 87.895Z" fill="black"/>
<path d="M104.267 57.5255C104.32 57.5255 103.885 54.1165 103.832 53.9065C103.225 51.4565 100.609 47.0465 97.7761 46.847C95.7352 46.7 94.2168 48.457 94.2694 50.4135C94.322 52.37 95.9912 54.239 97.5376 55.3345C99.3576 56.619 104.263 57.5255 104.267 57.5255Z" fill="black"/>
</g>
<g opacity="0.15">
<path d="M177.276 111.544C179.849 111.628 185.166 109.378 185.173 109.374C185.18 109.371 182.62 106.329 182.434 106.158C180.274 104.166 174.933 101.587 172.068 103.2C170.003 104.362 169.659 107.022 170.971 108.877C172.282 110.732 175.08 111.474 177.276 111.544Z" fill="black"/>
<path d="M229.314 163.079L229.518 163.429H231.843C231.559 162.977 231.264 162.522 230.962 162.053C230.103 160.727 229.16 159.323 228.178 157.895C229.38 156.754 230.515 155.545 231.576 154.273C233.813 155.34 238.611 155.725 239.231 155.771C239.231 157.328 239.193 158.84 239.147 160.268C239.115 161.252 239.077 162.193 239.035 163.103L241.065 162.298C241.065 161.651 241.09 160.993 241.097 160.307C241.097 158.728 241.097 157.041 241.072 155.305C241.696 155.197 246.781 154.283 248.787 152.918C250.596 151.679 252.557 149.597 252.665 147.283C252.774 144.97 251.045 142.957 248.675 143.083C245.392 143.262 242.278 148.305 241.535 151.133C241.489 151.301 241.216 153.17 241.062 154.35C241.062 153.65 241.037 152.95 241.013 152.225C240.974 150.783 240.893 149.345 240.809 147.798C240.741 147.053 240.675 146.301 240.609 145.54C240.56 144.784 240.409 143.993 240.311 143.209C240.045 141.403 239.691 139.583 239.291 137.76C240.553 137.721 245.045 137.522 247.03 136.566C249.015 135.611 251.259 133.857 251.718 131.586C252.178 129.314 250.772 127.064 248.415 126.833C245.14 126.514 241.297 131.033 240.129 133.717C240.055 133.885 239.428 135.912 239.115 137.028C238.867 135.936 238.625 134.841 238.337 133.742C237.506 130.567 236.566 127.379 235.644 124.194C235.36 123.221 235.09 122.244 234.816 121.271C235.265 121.271 240.606 121.142 242.829 120.071C244.807 119.122 247.062 117.362 247.517 115.09C247.973 112.819 246.574 110.568 244.214 110.337C240.939 110.019 237.099 114.537 235.931 117.222C235.844 117.425 234.953 120.34 234.764 121.093C234.161 118.944 233.578 116.798 233.091 114.66C232.417 111.777 231.932 108.855 231.639 105.91C231.846 105.91 237.425 105.808 239.705 104.713C241.682 103.761 243.934 102 244.393 99.7285C244.852 97.457 243.45 95.2065 241.09 94.979C237.815 94.657 233.975 99.179 232.803 101.864C232.712 102.074 231.751 105.21 231.625 105.791C231.625 105.619 231.576 105.441 231.562 105.273C231.348 102.309 231.4 99.333 231.716 96.379C231.871 94.7445 232.109 93.1905 232.376 91.6855C233.428 91.773 238.176 92.1195 240.336 91.36C242.405 90.632 244.838 89.1305 245.54 86.922C246.241 84.7135 245.101 82.3265 242.78 81.8365C239.561 81.161 235.248 85.228 233.789 87.7865C233.712 87.9265 233.059 89.421 232.604 90.52C232.733 89.841 232.856 89.141 232.993 88.4935C233.505 86.0435 234.125 83.87 234.687 81.931C235.016 80.832 235.335 79.831 235.647 78.921C236.699 78.4765 240.985 76.625 242.52 74.9905C244.056 73.356 245.491 70.9375 245.094 68.6555C244.698 66.3735 242.58 64.7775 240.297 65.411C237.141 66.293 235.174 71.886 235.058 74.8155C235.058 75.0675 235.342 79.047 235.409 79.0155L235.476 78.991C235.16 79.8695 234.834 80.818 234.494 81.861C233.887 83.7895 233.221 85.977 232.653 88.406C232.014 91.0159 231.527 93.6605 231.194 96.3265C230.811 99.311 230.693 102.323 230.843 105.329C230.843 105.364 230.843 105.402 230.843 105.437C230.493 104.538 229.465 102.053 229.363 101.871C227.936 99.3085 223.665 95.196 220.439 95.8365C218.114 96.2985 216.957 98.7205 217.634 100.891C218.31 103.061 220.73 104.636 222.788 105.385C225.113 106.235 230.465 105.822 230.889 105.787C231.119 108.846 231.552 111.886 232.186 114.887C232.537 116.637 232.961 118.387 233.403 120.137C233.081 119.367 232.789 118.681 232.74 118.59C231.31 116.028 227.042 111.916 223.812 112.556C221.487 113.018 220.33 115.44 221.007 117.61C221.684 119.78 224.103 121.355 226.165 122.104C228.227 122.853 232.828 122.608 234.034 122.524C234.21 123.193 234.385 123.865 234.553 124.533C235.409 127.739 236.279 130.935 237.033 134.099C237.299 135.212 237.52 136.318 237.734 137.424C237.45 136.745 237.204 136.171 237.155 136.087C235.728 133.525 231.46 129.412 228.231 130.053C225.906 130.515 224.749 132.937 225.425 135.107C226.102 137.277 228.522 138.852 230.584 139.601C232.579 140.329 236.798 140.129 238.235 140.035C238.432 141.176 238.628 142.317 238.768 143.43C238.845 144.193 238.972 144.921 239.01 145.694C239.049 146.468 239.112 147.21 239.161 147.955C239.203 149.397 239.259 150.885 239.266 152.295C239.266 153.272 239.266 154.206 239.266 155.148C239.014 154.035 238.474 151.868 238.411 151.693C237.421 149.31 235.836 147.219 233.806 145.621C233.707 145.351 233.584 145.091 233.438 144.844C232.27 142.894 229.693 142.128 227.792 143.538C225.152 145.495 225.338 151.417 226.288 154.192C226.344 154.357 227.147 156.065 227.691 157.136C227.284 156.555 226.898 155.984 226.477 155.386C225.646 154.206 224.784 153.051 223.858 151.805L222.455 150.031C221.996 149.429 221.435 148.851 220.919 148.253C219.699 146.891 218.398 145.568 217.062 144.27C218.097 143.542 221.733 140.903 222.859 139.02C223.984 137.137 224.889 134.431 224.016 132.282C223.143 130.133 220.73 129.031 218.633 130.14C215.726 131.677 215.018 137.557 215.53 140.444C215.561 140.623 216.164 142.653 216.515 143.762C215.701 142.985 214.895 142.208 214.06 141.449C211.606 139.258 209.07 137.116 206.539 134.97C205.764 134.312 204.999 133.651 204.231 132.986C204.603 132.73 208.99 129.689 210.256 127.575C211.378 125.692 212.286 122.983 211.409 120.837C210.533 118.692 208.124 117.586 206.03 118.692C203.123 120.232 202.411 126.108 202.923 128.996C202.962 129.213 203.831 132.146 204.091 132.867C202.401 131.407 200.728 129.937 199.139 128.425C196.984 126.388 194.962 124.215 193.087 121.919C193.262 121.8 197.856 118.646 199.15 116.48C200.276 114.597 201.18 111.891 200.307 109.742C199.434 107.593 197.018 106.491 194.924 107.6C192.017 109.137 191.309 115.017 191.821 117.901C191.86 118.128 192.799 121.271 193.01 121.828C192.901 121.695 192.775 121.569 192.659 121.432C190.816 119.071 189.189 116.55 187.795 113.9C187.02 112.451 186.361 111.027 185.751 109.623C186.666 109.123 190.829 106.792 192.21 104.972C193.532 103.222 194.732 100.632 194.1 98.402C193.469 96.1725 191.19 94.8075 188.988 95.679C185.926 96.89 184.576 102.655 184.78 105.581C184.78 105.742 185.078 107.331 185.302 108.514C185.036 107.877 184.748 107.222 184.506 106.606C183.591 104.3 182.893 102.13 182.293 100.201C181.96 99.102 181.68 98.101 181.431 97.163C182.073 96.204 184.615 92.3085 184.99 90.0965C185.358 87.937 185.225 85.0845 183.637 83.3975C182.048 81.7105 179.393 81.5495 177.84 83.3345C175.683 85.816 177.139 91.556 178.668 94.062C178.801 94.279 181.245 97.4325 181.28 97.3835L181.319 97.3275C181.543 98.234 181.792 99.207 182.09 100.261C182.648 102.203 183.3 104.398 184.17 106.732C185.076 109.261 186.129 111.735 187.326 114.142C188.654 116.842 190.221 119.419 192.007 121.842L192.077 121.926C191.295 121.362 189.054 119.864 188.872 119.766C186.263 118.415 180.428 117.337 178.092 119.647C176.409 121.313 176.781 123.97 178.534 125.415C180.288 126.861 183.188 126.833 185.323 126.325C187.729 125.751 191.965 122.475 192.301 122.199C194.18 124.621 196.218 126.915 198.403 129.066C199.669 130.326 200.984 131.554 202.317 132.772C201.615 132.307 201.005 131.897 200.914 131.848C198.305 130.497 192.473 129.419 190.134 131.729C188.451 133.392 188.823 136.052 190.58 137.494C192.337 138.936 195.23 138.915 197.365 138.404C199.501 137.893 203.197 135.159 204.158 134.421C204.677 134.883 205.185 135.348 205.704 135.821C208.19 138.026 210.68 140.213 213.068 142.436C213.906 143.216 214.702 144.018 215.502 144.819C214.884 144.406 214.365 144.063 214.281 144.018C211.672 142.67 205.837 141.589 203.502 143.899C201.815 145.565 202.19 148.221 203.944 149.667C205.697 151.112 208.597 151.084 210.733 150.577C212.798 150.083 216.206 147.595 217.35 146.727C218.146 147.57 218.942 148.414 219.675 149.268C220.162 149.859 220.67 150.398 221.126 151.018L222.501 152.82C223.335 154 224.202 155.211 224.987 156.383C225.538 157.192 226.039 157.972 226.565 158.76C225.741 157.972 224.093 156.46 223.942 156.352C221.568 154.623 215.964 152.673 213.303 154.602C211.385 156.002 211.35 158.679 212.868 160.37C214.386 162.06 217.251 162.47 219.436 162.295C221.845 162.099 226.358 159.61 226.919 159.295C227.75 160.587 228.564 161.85 229.314 163.079Z" fill="black"/>
<path d="M232.011 91.1501C232.071 91.1501 231.566 87.2021 231.506 86.9501C230.805 84.1011 227.775 79.0086 224.493 78.7776C222.126 78.6096 220.369 80.6396 220.439 82.9076C220.509 85.1756 222.434 87.3351 224.223 88.6056C226.327 90.1001 232.008 91.1501 232.011 91.1501Z" fill="black"/>
</g>
<path d="M100.034 122.472H59.4058V130.406H100.034V122.472Z" fill="white" stroke="#263238" stroke-linecap="round" stroke-linejoin="round"/>
<path d="M111.284 114.135H70.6553V122.472H111.284V114.135Z" fill="white" stroke="#263238" stroke-linecap="round" stroke-linejoin="round"/>
<path d="M122.536 105.794H81.9082V114.131H122.536V105.794Z" fill="white" stroke="#263238" stroke-linecap="round" stroke-linejoin="round"/>
<path d="M133.785 97.457H93.1572V105.794H133.785V97.457Z" fill="white" stroke="#263238" stroke-linecap="round" stroke-linejoin="round"/>
<path d="M145.456 163.415V97.457H133.789V105.794H122.536V114.135H111.287V122.472H100.034V163.415H145.456Z" fill="#263238" stroke="#263238" stroke-linecap="round" stroke-linejoin="round"/>
<path d="M145.456 155.477H104.828V163.411H145.456V155.477Z" fill="white" stroke="#263238" stroke-linecap="round" stroke-linejoin="round"/>
<path d="M93.5783 155.477H134.207V147.14H93.5783V155.477Z" fill="white" stroke="#263238" stroke-linecap="round" stroke-linejoin="round"/>
<path d="M82.3254 147.14H122.954V138.799H82.3254V147.14Z" fill="white" stroke="#263238" stroke-linecap="round" stroke-linejoin="round"/>
<path d="M71.0724 138.799H111.701V130.462H71.0724V138.799Z" fill="white" stroke="#263238" stroke-linecap="round" stroke-linejoin="round"/>
<path d="M59.4058 163.415V130.462H71.0724V138.799H82.3218V147.14H93.5747V155.477H104.828V163.415H59.4058Z" fill="#263238" stroke="#263238" stroke-linecap="round" stroke-linejoin="round"/>
<path d="M267.421 113.308L264.777 121.95L258.914 117.452C258.826 116.892 258.709 116.335 258.563 115.786C258.448 115.513 257.75 114.701 257.592 114.386C257.434 114.071 257.206 114.348 257.206 114.582C257.206 114.817 257.75 115.59 257.75 115.59L257.476 115.86L255.302 114.827C255.277 114.816 255.25 114.809 255.222 114.808C255.194 114.807 255.166 114.812 255.14 114.821C255.114 114.831 255.09 114.846 255.07 114.865C255.049 114.884 255.033 114.907 255.022 114.932C255.001 114.975 254.996 115.024 255.008 115.07C255.019 115.116 255.046 115.156 255.085 115.184L256.274 116.094L256.119 116.402L254.138 115.59C254.113 115.58 254.086 115.576 254.059 115.576C254.032 115.577 254.006 115.583 253.981 115.594C253.956 115.605 253.934 115.621 253.916 115.641C253.898 115.661 253.884 115.684 253.875 115.709C253.861 115.752 253.863 115.798 253.879 115.84C253.895 115.882 253.924 115.917 253.963 115.94L255.769 116.99L254.59 117.221C254.563 117.227 254.537 117.238 254.514 117.255C254.491 117.271 254.472 117.292 254.458 117.316C254.444 117.34 254.435 117.367 254.432 117.394C254.428 117.422 254.431 117.45 254.44 117.477C254.453 117.516 254.479 117.551 254.513 117.575C254.547 117.599 254.587 117.613 254.629 117.613H255.846L254.794 117.998C254.794 117.998 254.93 118.303 255.144 118.292L256.389 118.233L258.216 118.348C258.216 118.348 264.153 124.561 264.349 124.75C264.546 124.939 265.71 125.362 265.941 125.131C266.173 124.9 268.778 121.757 268.778 121.757L268.389 113.62C268.389 113.62 268.003 112.85 267.421 113.308Z" fill="white" stroke="#263238" stroke-linecap="round" stroke-linejoin="round"/>
<path d="M268.824 103.341C268.824 103.341 267.691 103.418 267.158 101.591C266.625 99.7635 267.993 99.2455 268.75 99.095C269.508 98.9445 269.659 97.282 270.946 97.0545C272.232 96.827 273.593 97.8875 273.898 98.8045C274.203 99.7215 276.17 98.3495 277.303 99.5605C278.436 100.772 278.355 103.11 278.355 103.943C278.355 104.776 280.929 104.926 280.929 106.89C280.929 108.853 280.624 109.837 280.775 110.138C280.925 110.439 282.062 116.627 282.062 116.627H267.933C267.933 116.627 267.481 112.105 268.01 110.971C268.54 109.837 268.996 109.76 269.22 108.703C269.445 107.646 269.22 105.983 269.069 105.227C268.955 104.603 268.873 103.973 268.824 103.341Z" fill="#263238" stroke="#263238" stroke-linecap="round" stroke-linejoin="round"/>
<path d="M271.552 111.275L267.312 111.352L268.144 121.702L276.17 122.307L279.954 111.576L275.413 111.202L271.552 111.275Z" fill="#263238" stroke="#263238" stroke-linecap="round" stroke-linejoin="round"/>
<path d="M270.188 100.922C270.188 100.922 269.052 102.511 268.824 103.341C268.526 104.3 268.461 105.316 268.635 106.305C268.863 107.439 269.508 109.312 269.96 109.455C270.413 109.599 271.626 109.455 271.626 109.455L271.552 111.268H270.946L271.019 113.988L273.898 114.138L275.413 111.191L274.656 111.041L274.126 106.585C274.126 106.585 274.88 105.752 274.957 105.147C275 104.846 275.026 104.543 275.034 104.24C275.034 104.24 274.126 104.923 273.369 104.24C272.611 103.558 272.383 102.805 272.155 102.049C271.927 101.293 271.475 100.691 271.103 100.691C270.788 100.719 270.479 100.797 270.188 100.922Z" fill="white" stroke="#263238" stroke-linecap="round" stroke-linejoin="round"/>
<path d="M271.625 109.462L272.912 109.007L271.703 110.368L271.625 109.462Z" fill="#263238" stroke="#263238" stroke-linecap="round" stroke-linejoin="round"/>
<path d="M268.144 121.702L267.312 124.348C267.312 124.348 264.283 127.596 263.676 133.64C263.069 139.685 264.055 145.656 264.36 148.074C264.665 150.493 267.582 161.182 267.582 161.182H269.553C269.553 161.182 268.824 151.249 268.824 150.265V144.749L274.389 160.023L276.209 160.1C276.209 160.1 275.479 152.887 275.027 149.95C274.714 148.02 274.287 146.11 273.747 144.231C273.747 144.231 277.752 136.3 277.752 130.847C277.752 125.394 276.388 124.197 276.388 124.197L276.163 122.307L268.144 121.702Z" fill="#BABABA" stroke="#263238" stroke-linecap="round" stroke-linejoin="round"/>
<path d="M270.574 130C270.837 128.82 271.019 128.043 271.019 128.043" stroke="#263238" stroke-linecap="round" stroke-linejoin="round"/>
<path d="M268.824 144.749C268.824 144.749 268.522 143.237 268.75 139.989C268.883 138.071 269.648 134.263 270.255 131.463" stroke="#263238" stroke-linecap="round" stroke-linejoin="round"/>
<path d="M267.583 161.182C267.583 161.182 264.027 162.844 264.027 163.222C264.027 163.6 269.704 163.222 269.704 163.222C269.835 162.859 269.887 162.472 269.855 162.088C269.809 161.77 269.707 161.464 269.553 161.182H267.583Z" fill="white" stroke="#263238" stroke-linecap="round" stroke-linejoin="round"/>
<path d="M274.389 160.023C274.389 160.023 272.727 162.14 272.194 162.669C271.661 163.197 271.815 163.575 272.271 163.575C272.727 163.575 275.301 163.425 275.753 163.124C276.01 162.959 276.239 162.754 276.433 162.518L276.209 160.1L274.389 160.023Z" fill="white" stroke="#263238" stroke-linecap="round" stroke-linejoin="round"/>
<path d="M279.505 112.938C279.505 112.938 280.189 122.986 279.582 124.046C278.976 125.107 277.236 124.498 277.086 124.046C276.935 123.595 277.236 119.661 277.236 119.661L279.505 112.938Z" fill="white" stroke="#263238" stroke-linecap="round" stroke-linejoin="round"/>
<path d="M261.067 88.9051L228.976 93.572L237.071 149.025L269.162 144.358L261.067 88.9051Z" fill="#6FC2AD" stroke="#263238" stroke-linecap="round" stroke-linejoin="round"/>
<path d="M259.103 97.2959C258.595 97.3703 258.077 97.3438 257.579 97.2181C257.08 97.0925 256.612 96.87 256.2 96.5635C255.788 96.2569 255.44 95.8723 255.178 95.4317C254.915 94.9911 254.741 94.503 254.667 93.9955C254.647 93.8352 254.635 93.674 254.632 93.5125L236.205 96.1899C236.251 96.3449 236.286 96.5027 236.31 96.6625C236.458 97.6876 236.193 98.7296 235.572 99.5597C234.952 100.39 234.027 100.94 233 101.09C232.919 101.09 232.842 101.107 232.761 101.114L238.54 140.734C238.621 140.717 238.698 140.699 238.779 140.689C239.288 140.615 239.807 140.642 240.306 140.768C240.804 140.894 241.273 141.118 241.685 141.425C242.097 141.733 242.445 142.119 242.707 142.56C242.97 143.002 243.142 143.491 243.215 144C243.238 144.16 243.251 144.321 243.253 144.483L261.677 141.805C261.632 141.649 261.598 141.49 261.576 141.329C261.501 140.822 261.528 140.305 261.654 139.808C261.78 139.311 262.002 138.844 262.31 138.433C262.617 138.022 263.002 137.676 263.444 137.413C263.885 137.151 264.374 136.979 264.882 136.905C265.043 136.882 265.204 136.869 265.366 136.867L259.577 97.1944C259.421 97.2373 259.263 97.2712 259.103 97.2959ZM249.986 125.296C248.731 125.479 247.45 125.286 246.304 124.741C245.159 124.197 244.201 123.326 243.551 122.239C242.902 121.151 242.59 119.896 242.656 118.632C242.721 117.367 243.16 116.151 243.919 115.136C244.677 114.12 245.719 113.353 246.915 112.929C248.11 112.505 249.404 112.445 250.634 112.755C251.864 113.066 252.974 113.734 253.823 114.674C254.673 115.614 255.224 116.784 255.407 118.037C255.531 118.87 255.489 119.719 255.283 120.536C255.077 121.352 254.712 122.121 254.209 122.796C253.705 123.472 253.073 124.042 252.348 124.473C251.624 124.904 250.821 125.189 249.986 125.31V125.296Z" fill="white" stroke="#263238" stroke-linecap="round" stroke-linejoin="round"/>
<path d="M255.736 90.0892L224.279 98.5049L238.877 152.862L270.334 144.447L255.736 90.0892Z" fill="#6FC2AD" stroke="#263238" stroke-width="1.00424" stroke-linecap="round" stroke-linejoin="round"/>
<path d="M253.745 98.6295C252.743 98.8967 251.676 98.756 250.778 98.2382C249.879 97.7204 249.224 96.8679 248.955 95.868C248.915 95.711 248.884 95.5521 248.86 95.392L230.875 100.194C230.936 100.344 230.989 100.497 231.033 100.652C231.166 101.148 231.199 101.665 231.132 102.173C231.065 102.682 230.898 103.172 230.64 103.616C230.383 104.06 230.041 104.449 229.633 104.761C229.225 105.073 228.759 105.301 228.262 105.433C228.185 105.454 228.104 105.468 228.027 105.486L238.393 144.164L238.624 144.091C239.121 143.958 239.638 143.924 240.148 143.991C240.657 144.058 241.148 144.225 241.593 144.481C242.038 144.737 242.428 145.079 242.74 145.486C243.053 145.893 243.282 146.357 243.415 146.852C243.456 147.009 243.488 147.168 243.509 147.328L261.495 142.526C261.433 142.377 261.381 142.224 261.337 142.068C261.07 141.067 261.211 140.002 261.73 139.105C262.25 138.208 263.105 137.554 264.107 137.287C264.264 137.243 264.423 137.212 264.584 137.192L254.205 98.472C254.055 98.5339 253.901 98.5865 253.745 98.6295ZM247.945 127.511C246.719 127.835 245.425 127.788 244.225 127.378C243.026 126.967 241.976 126.211 241.207 125.205C240.438 124.198 239.985 122.987 239.905 121.724C239.826 120.461 240.123 119.203 240.76 118.108C241.396 117.014 242.344 116.132 243.482 115.575C244.621 115.018 245.899 114.81 247.156 114.977C248.413 115.145 249.592 115.681 250.543 116.517C251.495 117.353 252.178 118.452 252.504 119.675C252.721 120.488 252.776 121.336 252.664 122.171C252.553 123.005 252.278 123.81 251.854 124.538C251.431 125.266 250.867 125.903 250.197 126.413C249.526 126.924 248.761 127.297 247.945 127.511Z" fill="white" stroke="#263238" stroke-linecap="round" stroke-linejoin="round"/>
<path d="M277.752 122.384L266.471 122.157C266.471 122.157 264.199 121.401 263.82 121.401C263.288 121.486 262.765 121.618 262.256 121.796C262.207 121.811 262.166 121.844 262.14 121.888C262.114 121.932 262.105 121.984 262.116 122.034C262.127 122.086 262.158 122.133 262.202 122.163C262.247 122.193 262.301 122.204 262.354 122.195L263.445 122.006L263.746 122.23L261.562 123.63C261.517 123.659 261.485 123.703 261.472 123.755C261.459 123.806 261.466 123.86 261.491 123.907C261.517 123.954 261.559 123.989 261.61 124.006C261.661 124.023 261.716 124.02 261.765 123.998L263.406 123.228L263.462 123.641L261.709 124.554C261.653 124.583 261.61 124.632 261.588 124.691C261.566 124.749 261.567 124.814 261.59 124.873C261.613 124.929 261.655 124.975 261.709 125.003C261.763 125.031 261.825 125.039 261.884 125.027L262.526 124.88C262.6 124.97 262.699 125.037 262.81 125.072C262.921 125.108 263.041 125.11 263.154 125.079L264.349 124.729L263.592 125.212C263.562 125.23 263.537 125.254 263.519 125.283C263.501 125.312 263.49 125.345 263.487 125.379C263.484 125.413 263.489 125.448 263.501 125.479C263.514 125.511 263.534 125.539 263.56 125.562C263.599 125.592 263.645 125.608 263.694 125.608C263.742 125.608 263.789 125.592 263.827 125.562L265.342 124.53L266.639 123.704L278.071 125.713C278.071 125.713 279.035 125.797 279.204 125.604C279.372 125.412 279.698 123.592 279.726 123.123" fill="white"/>
<path d="M277.752 122.384L266.471 122.157C266.471 122.157 264.199 121.401 263.82 121.401C263.288 121.486 262.765 121.618 262.256 121.796C262.207 121.811 262.166 121.844 262.14 121.888C262.114 121.932 262.105 121.984 262.116 122.034C262.127 122.086 262.158 122.133 262.202 122.163C262.247 122.193 262.301 122.204 262.354 122.195L263.445 122.006L263.746 122.23L261.562 123.63C261.517 123.659 261.485 123.703 261.472 123.755C261.459 123.806 261.466 123.86 261.491 123.907C261.517 123.954 261.559 123.989 261.61 124.006C261.661 124.023 261.716 124.02 261.765 123.998L263.406 123.228L263.462 123.641L261.709 124.554C261.653 124.583 261.61 124.632 261.588 124.691C261.566 124.749 261.567 124.814 261.59 124.873C261.613 124.929 261.655 124.975 261.709 125.003C261.763 125.031 261.825 125.039 261.884 125.027L262.526 124.88C262.6 124.97 262.699 125.037 262.81 125.072C262.921 125.108 263.041 125.11 263.154 125.079L264.349 124.729L263.592 125.212C263.562 125.23 263.537 125.254 263.519 125.283C263.501 125.312 263.49 125.345 263.487 125.379C263.484 125.413 263.489 125.448 263.501 125.479C263.514 125.511 263.534 125.539 263.56 125.562C263.599 125.592 263.645 125.608 263.694 125.608C263.742 125.608 263.789 125.592 263.827 125.562L265.342 124.53L266.639 123.704L278.071 125.713C278.071 125.713 279.035 125.797 279.204 125.604C279.372 125.412 279.698 123.592 279.726 123.123" stroke="#263238" stroke-linecap="round" stroke-linejoin="round"/>
<path d="M262.529 124.886L264.076 124.309" stroke="#263238" stroke-linecap="round" stroke-linejoin="round"/>
<path d="M269.837 104.331C269.837 104.59 269.704 104.804 269.535 104.804C269.367 104.804 269.234 104.59 269.234 104.331C269.234 104.072 269.371 103.862 269.535 103.862C269.7 103.862 269.837 104.072 269.837 104.331Z" fill="#263238"/>
<path d="M271.531 104.688C271.531 104.947 271.394 105.157 271.229 105.157C271.065 105.157 270.928 104.947 270.928 104.688C270.928 104.429 271.065 104.219 271.229 104.219C271.394 104.219 271.531 104.429 271.531 104.688Z" fill="#263238"/>
<path d="M269.161 103.263C269.161 103.263 269.462 102.885 270.062 103.298" stroke="#263238" stroke-linecap="round" stroke-linejoin="round"/>
<path d="M270.889 103.487C271.095 103.407 271.323 103.408 271.528 103.493C271.732 103.577 271.895 103.737 271.983 103.939" stroke="#263238" stroke-linecap="round" stroke-linejoin="round"/>
<path d="M270.139 104.352C270.179 104.577 270.166 104.809 270.1 105.028C269.988 105.29 269.462 105.777 269.501 105.892C269.539 106.008 269.799 106.078 269.799 106.078" stroke="#263238" stroke-linecap="round" stroke-linejoin="round"/>
<path d="M269.462 106.981C269.462 106.981 270.514 107.467 271.341 106.792" stroke="#263238" stroke-linecap="round" stroke-linejoin="round"/>
<path d="M152.431 78.3644C159.104 78.3644 164.515 72.9645 164.515 66.3034C164.515 59.6423 159.104 54.2424 152.431 54.2424C145.757 54.2424 140.347 59.6423 140.347 66.3034C140.347 72.9645 145.757 78.3644 152.431 78.3644Z" fill="white" stroke="#263238" stroke-linecap="round" stroke-linejoin="round"/>
<path d="M153.651 78.3644C160.325 78.3644 165.735 72.9645 165.735 66.3034C165.735 59.6423 160.325 54.2424 153.651 54.2424C146.977 54.2424 141.567 59.6423 141.567 66.3034C141.567 72.9645 146.977 78.3644 153.651 78.3644Z" fill="white" stroke="#263238" stroke-linecap="round" stroke-linejoin="round"/>
<path d="M160.903 73.5396C164.908 69.543 164.908 63.0632 160.903 59.0666C156.899 55.0699 150.407 55.0699 146.403 59.0666C142.398 63.0632 142.398 69.543 146.403 73.5396C150.407 77.5363 156.899 77.5363 160.903 73.5396Z" fill="white" stroke="#263238" stroke-linecap="round" stroke-linejoin="round"/>
<path d="M153.767 73.4995V72.152C152.771 72.1147 152.026 71.7962 151.533 71.1965C151.04 70.5968 150.773 69.7032 150.733 68.5155L152.781 68.1655C152.79 68.5721 152.841 68.9767 152.932 69.373C152.987 69.6441 153.115 69.8948 153.304 70.0975C153.388 70.1786 153.488 70.2419 153.598 70.2834C153.708 70.3249 153.825 70.3438 153.942 70.339C154.062 70.3518 154.182 70.3314 154.291 70.2802C154.4 70.229 154.493 70.1488 154.559 70.0485C154.671 69.8438 154.728 69.6134 154.724 69.38C154.737 68.942 154.614 68.5108 154.373 68.1445C154.107 67.7687 153.792 67.4298 153.437 67.1365L152.206 66.0865C151.936 65.8382 151.683 65.5715 151.449 65.2885C151.224 65.0109 151.045 64.6989 150.919 64.3645C150.781 63.9687 150.715 63.5515 150.723 63.1325C150.7 62.7446 150.757 62.356 150.891 61.9911C151.025 61.6261 151.232 61.2927 151.501 61.0115C152.069 60.4823 152.808 60.1753 153.584 60.147V58.859H154.286V60.147C154.736 60.1557 155.177 60.276 155.569 60.497C155.887 60.6869 156.15 60.9558 156.333 61.2775C156.509 61.6002 156.635 61.9469 156.709 62.3065C156.784 62.6618 156.833 63.0221 156.856 63.3845L154.78 63.689C154.774 63.3711 154.744 63.0542 154.692 62.7405C154.66 62.5079 154.571 62.2867 154.433 62.0965C154.361 62.0161 154.27 61.9543 154.169 61.9166C154.067 61.8788 153.958 61.866 153.851 61.8795C153.73 61.8781 153.61 61.9064 153.502 61.962C153.395 62.0175 153.302 62.0985 153.234 62.198C153.091 62.4031 153.017 62.6483 153.023 62.898C153.006 63.2806 153.119 63.6578 153.342 63.969C153.564 64.2468 153.807 64.5077 154.068 64.7495L155.274 65.7995C155.594 66.0892 155.889 66.404 156.158 66.741C156.43 67.0814 156.65 67.46 156.81 67.8645C156.982 68.3111 157.066 68.7863 157.059 69.2645C157.066 69.7491 156.959 70.2285 156.747 70.6645C156.545 71.08 156.233 71.4331 155.846 71.6865C155.431 71.9563 154.955 72.1165 154.461 72.152V73.5135L153.767 73.4995Z" fill="white" stroke="#263238" stroke-linecap="round" stroke-linejoin="round"/>
<path d="M123.297 64.8125L123.68 82.4945L123.525 95.0665L125.587 94.762C125.587 94.762 127.803 82.9495 127.803 82.2635C127.803 81.5775 129.024 72.8135 129.024 72.8135L131.314 84.1675L132.502 95.063L134.564 94.7585C134.564 94.7585 134.827 82.946 134.827 80.8145C134.827 78.683 134.722 64.9595 134.722 64.9595L128.259 63.2865L123.297 64.8125Z" fill="#263238" stroke="#263238" stroke-linecap="round" stroke-linejoin="round"/>
<path d="M125.587 94.762C125.587 94.762 128.642 96.743 128.186 97.212C127.73 97.681 125.205 97.212 124.518 97.135C124.2 97.1226 123.889 97.0452 123.603 96.9075L123.525 95.077L125.587 94.762Z" fill="white" stroke="#263238" stroke-linecap="round" stroke-linejoin="round"/>
<path d="M134.564 94.762C134.564 94.762 137.619 96.743 137.159 97.212C136.7 97.681 134.182 97.212 133.495 97.135C133.177 97.1226 132.866 97.0452 132.58 96.9075L132.502 95.077L134.564 94.762Z" fill="white" stroke="#263238" stroke-linecap="round" stroke-linejoin="round"/>
<path d="M150.306 53.8785L153.058 53.245C153.058 53.245 155.702 54.645 155.923 54.8445C156.144 55.044 155.702 55.065 155.222 55.065C154.469 54.9644 153.723 54.816 152.988 54.6205C152.988 54.6205 154.142 54.9705 153.956 55.142C153.852 55.2227 153.732 55.2809 153.604 55.3129C153.476 55.3448 153.343 55.3498 153.213 55.3275C153.027 55.289 152.318 55.177 152.318 55.177C152.318 55.177 151.091 55.142 150.719 55.065L150.348 54.9915L150.306 53.8785Z" fill="white" stroke="#263238" stroke-linecap="round" stroke-linejoin="round"/>
<path d="M132.499 42.9829C132.499 42.9829 126.236 46.4829 125.429 47.4874C124.623 48.4919 124.353 53.5354 123.813 57.0984C123.459 59.7507 123.257 62.4208 123.206 65.0959C123.206 65.0959 127.719 65.7014 130.219 65.6349C131.745 65.5882 133.26 65.3627 134.732 64.9629C134.732 64.9629 135.609 60.4584 135.809 59.7864C136.009 59.1144 137.629 51.0364 137.629 51.0364L142.612 55.0019H150.306V53.8644C150.306 53.8644 144.218 52.4644 144.151 52.2439C144.085 52.0234 138.965 44.7154 137.415 43.8439C135.865 42.9724 133.579 42.1744 132.499 42.9829Z" fill="#6FC2AD" stroke="#263238" stroke-linecap="round" stroke-linejoin="round"/>
<path d="M133.105 41.0334L131.962 43.7879C131.962 43.7879 131.422 43.9244 131.559 44.9989C131.696 46.0734 133.039 49.0974 133.509 49.0309C133.978 48.9644 135.462 44.9499 135.462 44.9499L133.105 41.0334Z" fill="white" stroke="#263238" stroke-linecap="round" stroke-linejoin="round"/>
<path d="M133.75 44.075L134.227 47.7464L135.125 45.9405L133.75 44.075Z" fill="#263238" stroke="#263238" stroke-linecap="round" stroke-linejoin="round"/>
<path d="M139.505 39.42C139.727 39.6063 140.001 39.7195 140.29 39.7439C140.579 39.7684 140.868 39.7029 141.118 39.5565C142.132 39.084 142.601 38.076 141.725 37.271C140.848 36.466 140.378 37.3375 140.108 36.263C139.838 35.1885 138.762 34.45 137.836 34.716C136.91 34.982 137.233 35.3215 136.559 35.521C135.886 35.7205 135.01 35.1185 134.133 35.9935C133.256 36.8685 133.123 38.951 132.923 39.8925C132.723 40.834 133.596 41.1 134.326 41.0335C135.055 40.967 135.672 39.42 136.279 38.9335C136.886 38.447 139.505 39.42 139.505 39.42Z" fill="#263238" stroke="#263238" stroke-linecap="round" stroke-linejoin="round"/>
<path d="M132.972 41.3029C132.972 41.3029 133.039 42.7799 133.323 43.2524C133.607 43.7249 134.725 45.9404 135.139 45.9404C135.57 45.9704 136.004 45.9242 136.419 45.8039C136.689 45.6709 137.766 44.2604 138.439 43.0494C139.112 41.8384 139.519 39.4199 139.519 39.4199C139.519 39.4199 136.286 37.4039 136.082 37.8064C135.879 38.2089 135.949 38.8144 135.613 38.8809C135.276 38.9474 134.536 39.0174 134.536 39.0174C134.536 39.0174 134.736 39.9589 134.466 40.1584C134.196 40.3579 133.523 39.9589 133.523 39.9589C133.523 39.9589 132.702 40.0919 132.972 41.3029Z" fill="white" stroke="#263238" stroke-linecap="round" stroke-linejoin="round"/>
<path d="M136.717 41.541C136.658 41.7965 136.493 41.9785 136.367 41.947C136.24 41.9155 136.156 41.6775 136.216 41.422C136.275 41.1665 136.44 40.981 136.584 41.016C136.728 41.051 136.784 41.2855 136.717 41.541Z" fill="#263238"/>
<path d="M138.478 42.031C138.415 42.29 138.253 42.4685 138.11 42.437C137.966 42.4055 137.899 42.1675 137.959 41.912C138.018 41.6565 138.183 41.471 138.309 41.506C138.436 41.541 138.537 41.7755 138.478 42.031Z" fill="#263238"/>
<path d="M135.981 40.5785C135.981 40.5785 136.247 40.365 137.033 40.5785" stroke="#263238" stroke-linecap="round" stroke-linejoin="round"/>
<path d="M138.214 41.058C138.355 41.074 138.49 41.1201 138.611 41.1932C138.732 41.2663 138.836 41.3646 138.916 41.4815" stroke="#263238" stroke-linecap="round" stroke-linejoin="round"/>
<path d="M137.629 42.0135L137.362 43.445L136.514 43.3401" stroke="#263238" stroke-linecap="round" stroke-linejoin="round"/>
<path d="M136.247 44.187C136.247 44.187 135.448 44.187 135.195 43.074" stroke="#263238" stroke-linecap="round" stroke-linejoin="round"/>
<path d="M133.845 40.5645C133.845 40.5645 133.712 39.0175 133.105 39.0175C132.499 39.0175 131.962 40.4175 132.299 41.0335C132.635 41.6495 133.509 41.8385 133.509 41.8385" fill="white"/>
<path d="M133.845 40.5645C133.845 40.5645 133.712 39.0175 133.105 39.0175C132.499 39.0175 131.962 40.4175 132.299 41.0335C132.635 41.6495 133.509 41.8385 133.509 41.8385" stroke="#263238" stroke-linecap="round" stroke-linejoin="round"/>
<path d="M128.473 48.6915L129.641 58.3515L139.46 61.701L139.614 62.835L126.485 61.05L124.381 50.179C124.125 48.8595 124.805 47.428 125.749 46.6265C126.692 45.825 128.172 45.783 128.172 45.783" fill="#6FC2AD"/>
<path d="M128.473 48.6915L129.641 58.3515L139.46 61.701L139.614 62.835L126.485 61.05L124.381 50.179C124.125 48.8595 124.805 47.428 125.749 46.6265C126.692 45.825 128.172 45.783 128.172 45.783" stroke="#263238" stroke-linecap="round" stroke-linejoin="round"/>
<path d="M139.445 61.7009C139.445 61.7009 141.009 61.2634 141.199 61.2249C141.388 61.1864 142.451 62.0089 142.661 62.0369C142.871 62.0649 143.229 62.1314 143.211 62.4079C143.194 62.6844 143.103 62.9084 142.591 62.7334C142.299 62.6387 142.016 62.5217 141.742 62.3834C142.223 62.8748 142.734 63.3365 143.271 63.7659C143.465 63.8871 143.641 64.033 143.797 64.1999C143.821 64.2253 143.838 64.2559 143.848 64.2892C143.858 64.3226 143.859 64.3577 143.853 64.3918C143.846 64.426 143.832 64.4581 143.811 64.4855C143.789 64.513 143.762 64.5351 143.73 64.5499C143.311 64.7492 142.858 64.8679 142.394 64.8999C141.644 64.8999 139.589 62.8384 139.589 62.8384L139.445 61.7009Z" fill="white" stroke="#263238" stroke-linecap="round" stroke-linejoin="round"/>
<path d="M200.675 90.366C200.675 90.366 210.711 84.717 212.174 85.263C213.636 85.809 210.894 96.9215 210.529 97.6495C210.164 98.3775 200.675 90.366 200.675 90.366Z" fill="#6FC2AD" stroke="#263238" stroke-linecap="round" stroke-linejoin="round"/>
<path d="M211.623 86.7224C211.623 86.7224 211.188 87.3979 210.634 88.3709C209.666 90.0719 208.341 92.6829 208.341 94.1914C208.341 96.5574 209.8 96.3754 210.164 94.5414L211.441 89.2564" stroke="#263238" stroke-linecap="round" stroke-linejoin="round"/>
<path d="M127.267 120.004C130.019 120.004 132.25 117.105 132.25 113.529C132.25 109.953 130.019 107.054 127.267 107.054C124.515 107.054 122.284 109.953 122.284 113.529C122.284 117.105 124.515 120.004 127.267 120.004Z" fill="#6FC2AD" stroke="#263238" stroke-linecap="round" stroke-linejoin="round"/>
<path d="M172.432 159.991C198.655 159.991 219.913 142.029 219.913 119.871C219.913 97.7131 198.655 79.7505 172.432 79.7505C146.21 79.7505 124.952 97.7131 124.952 119.871C124.952 142.029 146.21 159.991 172.432 159.991Z" fill="#6FC2AD" stroke="#263238" stroke-linecap="round" stroke-linejoin="round"/>
<path d="M203.27 147.528C195.205 153.94 184.369 157.87 172.432 157.87C151.129 157.87 133.284 145.351 128.641 128.544" fill="#6FC2AD"/>
<path d="M203.27 147.528C195.205 153.94 184.369 157.87 172.432 157.87C151.129 157.87 133.284 145.351 128.641 128.544" stroke="#263238" stroke-width="2" stroke-linecap="round" stroke-linejoin="round"/>
<path d="M127.491 121.131C127.473 120.714 127.466 120.294 127.466 119.871C127.467 115.289 128.43 110.759 130.293 106.571" fill="#6FC2AD"/>
<path d="M127.491 121.131C127.473 120.714 127.466 120.294 127.466 119.871C127.467 115.289 128.43 110.759 130.293 106.571" stroke="#263238" stroke-width="2" stroke-linecap="round" stroke-linejoin="round"/>
<path d="M158.174 84.1674C167.518 81.5308 177.41 81.5308 186.754 84.1674" stroke="#263238" stroke-width="5" stroke-linecap="round" stroke-linejoin="round"/>
<path d="M217.283 107.488C217.283 107.488 223.307 105.482 224.219 106.578C225.131 107.673 225.131 120.42 224.401 122.79C223.672 125.159 218.741 124.61 215.284 122.062C214.293 121.367 213.49 120.437 212.949 119.356C212.408 118.274 212.145 117.075 212.184 115.867" fill="#6FC2AD"/>
<path d="M217.283 107.488C217.283 107.488 223.307 105.482 224.219 106.578C225.131 107.673 225.131 120.42 224.401 122.79C223.672 125.159 218.741 124.61 215.284 122.062C214.293 121.367 213.49 120.437 212.949 119.356C212.408 118.274 212.145 117.075 212.184 115.867" stroke="#263238" stroke-linecap="round" stroke-linejoin="round"/>
<path d="M213.632 115.321L209.982 115.867" stroke="#263238" stroke-linecap="round" stroke-linejoin="round"/>
<path d="M212.72 119.328C212.72 119.328 211.809 125.705 212.903 125.887C213.997 126.069 215.824 122.79 215.824 122.79C215.824 122.79 213.267 119.874 212.72 119.328Z" fill="#263238" stroke="#263238" stroke-linecap="round" stroke-linejoin="round"/>
<path d="M209.4 104.394C209.75 105.706 209.537 106.896 208.951 107.047C208.365 107.197 207.618 106.252 207.278 104.947C206.938 103.641 207.141 102.444 207.727 102.294C208.313 102.143 209.063 103.078 209.4 104.394Z" fill="#263238"/>
<path d="M190.222 86.74C190.222 86.74 201.706 75.2775 203.947 77.514C206.188 79.7505 205.349 89.5365 205.349 90.9365V94.8495" fill="#6FC2AD"/>
<path d="M190.222 86.74C190.222 86.74 201.706 75.2775 203.947 77.514C206.188 79.7505 205.349 89.5365 205.349 90.9365V94.8495" stroke="#263238" stroke-linecap="round" stroke-linejoin="round"/>
<path d="M204.326 79.9814C204.326 79.9814 204.508 77.0659 203.228 78.8894C201.948 80.7129 198.301 93.2779 199.395 94.7374C200.489 96.1969 203.603 95.4654 204.326 92.7319C205.048 89.9984 204.508 82.1654 204.508 82.1654" stroke="#263238" stroke-linecap="round" stroke-linejoin="round"/>
<path d="M141.461 146.464L147.745 163.414H154.682L157.781 154.668" fill="#6FC2AD"/>
<path d="M141.461 146.464L147.745 163.414H154.682L157.781 154.668" stroke="#263238" stroke-linecap="round" stroke-linejoin="round"/>
<path d="M199.395 148.658L193.375 163.414H186.438L183.335 154.668" fill="#6FC2AD"/>
<path d="M199.395 148.658L193.375 163.414H186.438L183.335 154.668" stroke="#263238" stroke-linecap="round" stroke-linejoin="round"/>
<path d="M170.115 139.744V136.205C167.499 136.103 165.543 135.266 164.248 133.696C162.953 132.126 162.251 129.781 162.144 126.661L167.52 125.747C167.543 126.817 167.677 127.88 167.919 128.922C168.061 129.633 168.397 130.291 168.891 130.822C169.114 131.034 169.377 131.199 169.665 131.307C169.953 131.415 170.26 131.465 170.567 131.452C171.352 131.452 171.892 131.2 172.187 130.689C172.486 130.155 172.638 129.551 172.625 128.939C172.665 127.79 172.352 126.655 171.728 125.688C171.03 124.703 170.204 123.814 169.273 123.045L166.033 120.266C165.326 119.612 164.664 118.91 164.052 118.166C163.451 117.433 162.977 116.605 162.649 115.716C162.285 114.678 162.11 113.583 162.133 112.482C162.133 110.102 162.814 108.246 164.174 106.914C165.535 105.582 167.357 104.827 169.641 104.649V101.3H171.5V104.684C172.683 104.708 173.842 105.028 174.87 105.615C175.703 106.118 176.392 106.825 176.872 107.67C177.336 108.516 177.669 109.427 177.861 110.372C178.054 111.304 178.179 112.249 178.233 113.2L172.783 113.998C172.768 113.163 172.691 112.33 172.555 111.506C172.469 110.892 172.228 110.31 171.854 109.815C171.665 109.605 171.428 109.443 171.163 109.343C170.898 109.244 170.613 109.21 170.332 109.245C170.014 109.24 169.699 109.314 169.417 109.46C169.134 109.606 168.892 109.82 168.712 110.081C168.345 110.606 168.152 111.231 168.158 111.87C168.112 112.872 168.409 113.859 168.999 114.67C169.579 115.403 170.216 116.09 170.904 116.724L174.06 119.461C174.909 120.226 175.694 121.059 176.409 121.95C177.124 122.843 177.701 123.838 178.124 124.9C178.573 126.081 178.791 127.337 178.766 128.6C178.782 129.87 178.501 131.126 177.945 132.268C177.414 133.358 176.598 134.285 175.585 134.952C174.494 135.657 173.242 136.075 171.945 136.167V139.744H170.115Z" fill="#263238"/>
<path opacity="0.35" d="M183.594 119.412C189.9 119.412 195.012 114.472 195.012 108.377C195.012 102.282 189.9 97.3414 183.594 97.3414C177.289 97.3414 172.177 102.282 172.177 108.377C172.177 114.472 177.289 119.412 183.594 119.412Z" fill="white"/>
<path d="M45.6211 163.415H298.567" stroke="#263238" stroke-linecap="round" stroke-linejoin="round"/>
</svg>
