<svg width="66" height="66" viewBox="0 0 66 66" fill="none" xmlns="http://www.w3.org/2000/svg">
<circle cx="33.3027" cy="33" r="32.5" fill="#4BC6AC" fill-opacity="0.2"/>
<g clip-path="url(#clip0_123_4568)">
<path d="M31.5078 15.6161C30.564 15.8965 29.846 16.3615 29.2373 17.0796C28.0611 18.4678 27.8491 20.4784 28.7176 22.147C29.0869 22.8719 29.9007 23.6584 30.6393 24.0276C30.9538 24.1849 31.3095 24.3285 31.4394 24.3559L31.6787 24.3969V25.3749V26.3528L31.3573 26.4007C30.8376 26.4759 29.8255 26.8725 29.21 27.2281C28.4988 27.6453 27.5072 28.6027 27.0421 29.3208C26.6455 29.9294 26.3172 30.6817 26.1599 31.3382C26.0984 31.598 26.0437 31.8442 26.03 31.8853C26.0095 31.9537 25.7565 31.9742 25.0521 31.9742H24.1015L24.0605 31.7348C24.0331 31.6049 23.8895 31.2493 23.7322 30.9347C23.1578 29.7926 21.9405 28.8489 20.7027 28.589C19.1093 28.2539 17.6526 28.6916 16.4901 29.8542C15.8472 30.4902 15.5121 31.0783 15.3001 31.9058C15.1223 32.576 15.1839 33.9027 15.4164 34.5182C15.6694 35.1883 15.9909 35.6944 16.4969 36.2073C16.9961 36.7065 17.4954 37.0348 18.1929 37.2947C18.6101 37.4588 18.74 37.4725 19.6769 37.4793C20.5796 37.4793 20.7574 37.4588 21.1472 37.322C22.4671 36.8501 23.5407 35.8038 23.9579 34.5729L24.122 34.0873L25.0658 34.1078L26.0163 34.1284L26.1736 34.7438C26.4472 35.8449 26.9601 36.7749 27.7807 37.6639C28.1226 38.0401 28.1842 38.1495 28.1295 38.2452C28.0679 38.3683 26.0095 41.6372 25.9753 41.6714C25.9616 41.6782 25.7565 41.644 25.5171 41.5825C24.5187 41.35 23.3151 41.5073 22.3576 42.0065C21.6875 42.3484 20.8531 43.1827 20.5112 43.8529C19.3213 46.1507 20.2103 48.9477 22.4807 50.0556C23.2535 50.4386 23.7117 50.5275 24.7033 50.4933C25.6539 50.4591 26.1326 50.3223 26.8712 49.8846C27.3636 49.5837 28.0884 48.8588 28.3893 48.3665C28.8202 47.6416 28.957 47.1423 28.9912 46.2328C29.039 44.9676 28.7655 44.0581 28.0816 43.2169L27.7739 42.8408L28.8886 41.0628C29.8323 39.5583 30.0238 39.2915 30.14 39.3189C30.2153 39.3394 30.5572 39.4352 30.8923 39.5377C31.4531 39.7019 31.6172 39.7224 32.6704 39.7292C33.6825 39.7361 33.9082 39.7155 34.4074 39.5788C35.0434 39.4078 35.8367 39.059 36.3427 38.7376L36.671 38.5256L37.8883 39.6882C38.5516 40.331 39.7142 41.4731 40.4596 42.2253L41.8273 43.5931L41.6085 44.0581C41.2734 44.7898 41.164 45.3574 41.205 46.2328C41.2255 46.8551 41.2666 47.0808 41.4444 47.5458C41.9299 48.8588 42.9284 49.8368 44.2619 50.3155C44.6517 50.4522 44.8295 50.4728 45.7322 50.4728C46.6691 50.4659 46.799 50.4522 47.2162 50.2881C47.9001 50.0282 48.3993 49.7068 48.9053 49.2008C49.4114 48.6947 49.7397 48.1886 49.9927 47.5116C50.1295 47.1423 50.1705 46.8961 50.1979 46.1986C50.232 45.207 50.1431 44.7556 49.7465 43.9418C49.4046 43.2306 48.5361 42.3553 47.8248 41.9997C46.5118 41.3363 44.9252 41.309 43.708 41.9244L43.3524 42.1091L40.7878 39.5446L38.2302 36.9869L38.5448 36.4467C40.8152 32.5349 38.6747 27.4743 34.3116 26.4554L33.7987 26.3391V25.3749V24.4038L34.0928 24.3217C35.1118 24.014 36.288 23.0224 36.753 22.0581C37.1292 21.2853 37.2386 20.7177 37.2044 19.7877C37.177 19.2543 37.1223 18.8781 37.0266 18.5704C36.6026 17.2847 35.5563 16.2111 34.2227 15.7118C33.6004 15.4793 32.1438 15.4246 31.5078 15.6161ZM33.2448 18.6866C33.6414 18.9875 33.6962 19.138 33.6962 19.9381C33.6962 20.581 33.6756 20.7041 33.5525 20.875C33.1969 21.3537 32.6704 21.4973 32.2395 21.2375C31.8429 20.9913 31.7471 20.7519 31.7471 19.9313C31.7471 19.2885 31.7677 19.179 31.9044 18.9739C32.2122 18.5157 32.8276 18.3789 33.2448 18.6866ZM33.5594 29.7448C34.0518 29.8747 34.5715 30.1551 34.7767 30.4013C35.0365 30.7022 35.0707 31.0031 34.9066 31.386C34.6467 31.9673 34.1202 32.1178 33.4431 31.8032C32.7114 31.4613 31.9113 31.6391 31.5351 32.234C31.1727 32.8017 31.2137 33.4582 31.6309 33.9369C32.1027 34.4703 32.6977 34.566 33.4705 34.2241C34.0176 33.9847 34.2774 33.9847 34.6194 34.2309C35.016 34.5113 35.146 35.0447 34.9271 35.4687C34.5783 36.1321 33.067 36.5971 32.0138 36.3509C30.2153 35.9338 28.9912 34.101 29.3741 32.3982C29.5382 31.6664 29.805 31.1809 30.311 30.668C30.776 30.1961 31.1248 29.9773 31.7471 29.779C32.2053 29.6285 33.0807 29.6148 33.5594 29.7448ZM20.1009 31.6322C20.5659 31.8374 20.6685 32.0768 20.6685 32.9179C20.6685 33.4308 20.6343 33.6907 20.5591 33.8616C20.2445 34.525 19.1982 34.5387 18.8494 33.8753C18.7673 33.7249 18.7195 33.4445 18.699 33.0342C18.6716 32.2477 18.8221 31.8921 19.3008 31.6459C19.6701 31.4613 19.7316 31.4613 20.1009 31.6322ZM25.0931 44.7351C25.4145 44.9813 25.5445 45.3985 25.5103 46.0755C25.4898 46.4243 25.435 46.732 25.3598 46.8688C25.0179 47.5321 23.9647 47.5185 23.6502 46.8551C23.5749 46.6841 23.5407 46.4243 23.5407 45.9114C23.5407 45.0771 23.6433 44.8309 24.1083 44.6189C24.4571 44.4616 24.7785 44.4958 25.0931 44.7351ZM46.293 44.7351C46.6144 44.9813 46.7443 45.3985 46.7101 46.0755C46.6896 46.4243 46.6349 46.732 46.5597 46.8688C46.2178 47.5321 45.1646 47.5185 44.85 46.8551C44.7748 46.6841 44.7406 46.4243 44.7406 45.9114C44.7406 45.0771 44.8432 44.8309 45.3082 44.6189C45.657 44.4616 45.9784 44.4958 46.293 44.7351Z" fill="#6FC2AD"/>
</g>
<defs>
<clipPath id="clip0_123_4568">
<rect width="35.7143" height="35.7143" fill="white" transform="translate(15 15)"/>
</clipPath>
</defs>
</svg>
